<?xml version="1.0" encoding="UTF-8" standalone="no"?>
<!DOCTYPE svg PUBLIC "-//W3C//DTD SVG 1.1//EN" "http://www.w3.org/Graphics/SVG/1.1/DTD/svg11.dtd">
<svg width="100%" height="100%" viewBox="0 0 800 800" version="1.1" xmlns="http://www.w3.org/2000/svg"
  xmlns:xlink="http://www.w3.org/1999/xlink" xml:space="preserve" xmlns:serif="http://www.serif.com/"
  style="fill-rule:evenodd;clip-rule:evenodd;stroke-linejoin:round;stroke-miterlimit:2;">
  <g id="g10" transform="matrix(1.25,0,0,-1.25,0,800)">
    <g id="g12" transform="matrix(1.13021,0,0,1.13021,-41.6656,-31.3716)">
      <g id="g14">
        <g id="g20" transform="matrix(1,0,0,1,572.632,370.526)">
          <path id="path22"
            d="M0,0C0,1.179 -0.303,2.291 -0.354,3.469C-0.303,5.103 0,6.787 0,8.421C0,143.293 -113.112,218.947 -252.632,218.947C-392.152,218.947 -505.263,143.293 -505.263,8.421C-505.263,6.585 -505.011,4.682 -504.977,2.829C-505.011,1.869 -505.263,0.977 -505.263,0L-504.539,-5.827C-503.798,-18.796 -502.299,-31.882 -499.638,-45.036L-471.579,-269.474C-471.579,-306.678 -441.415,-336.842 -404.211,-336.842L-101.053,-336.842C-63.848,-336.842 -33.684,-306.678 -33.684,-269.474L-2.712,-21.676C-2.122,-18.038 -1.752,-14.451 -1.347,-10.846L0,0Z"
            style="fill:rgb(221,46,68);fill-rule:nonzero;" />
        </g>
      </g>
    </g>
    <g id="g24" transform="matrix(1.13021,0,0,1.13021,-41.6656,-31.3716)">
      <g id="g26">
        <clipPath id="_clip1">
          <path
            d="M67.368,378.947C67.368,377.095 67.621,375.225 67.655,373.356C67.621,372.396 67.368,371.486 67.368,370.526L68.093,364.699C68.834,351.747 70.333,338.661 72.994,325.507L101.053,101.053C101.053,63.848 131.217,33.684 168.421,33.684L471.579,33.684C508.783,33.684 538.947,63.848 538.947,101.053L569.92,348.867C570.509,352.488 570.897,356.076 571.284,359.68L572.632,370.526C572.632,371.722 572.328,372.8 572.295,373.996C572.328,375.629 572.632,377.314 572.632,378.947C572.632,513.819 459.52,589.474 320,589.474C180.463,589.474 67.368,513.819 67.368,378.947" />
        </clipPath>
        <g clip-path="url(#_clip1)">
          <g id="g32" transform="matrix(1,0,0,1,50.5263,606.316)">
            <path id="path34"
              d="M0,0L0,-269.474C0,-250.88 15.091,-252.632 33.684,-252.632C52.278,-252.632 84.211,-250.88 84.211,-269.474C84.211,-315.992 157.861,-353.684 269.474,-353.684C381.086,-353.684 454.737,-315.992 454.737,-269.474C454.737,-250.88 486.669,-252.632 505.263,-252.632C523.857,-252.632 538.947,-250.88 538.947,-269.474L555.789,-269.474L555.789,0L0,0Z"
              style="fill:rgb(190,25,49);fill-rule:nonzero;" />
          </g>
        </g>
      </g>
    </g>
    <g id="g36" transform="matrix(1.13021,0,0,1.13021,-41.6656,-31.3716)">
      <g id="g38">
        <clipPath id="_clip2">
          <path
            d="M50.526,606.316L50.526,336.842C50.526,355.436 65.6,353.684 84.211,353.684C102.821,353.684 134.737,355.436 134.737,336.842C134.737,290.341 208.371,252.632 320,252.632C431.613,252.632 505.263,290.341 505.263,336.842C505.263,355.436 537.179,353.684 555.789,353.684C574.4,353.684 589.474,355.436 589.474,336.842L606.316,336.842L606.316,606.316L50.526,606.316Z" />
        </clipPath>
        <g clip-path="url(#_clip2)">
          <g id="g44" transform="matrix(1,0,0,1,185.288,92.6316)">
            <path id="path46"
              d="M0,0C-1.937,0 -3.907,0.219 -5.878,0.691C-19.453,3.907 -27.823,17.549 -24.589,31.124L59.621,384.808C62.838,398.366 76.48,406.72 90.038,403.52C103.613,400.286 111.983,386.661 108.766,373.086L24.556,19.402C21.777,7.815 11.419,0 0,0"
              style="fill:rgb(244,144,12);fill-rule:nonzero;" />
          </g>
          <g id="g48" transform="matrix(1,0,0,1,437.895,454.737)">
            <path id="path50"
              d="M0,0C-16.842,-16.842 -67.368,-67.368 -33.684,-101.053C0,-134.737 -50.526,-235.789 0,-202.105C50.526,-168.421 67.368,-117.895 67.368,-84.211C67.368,-50.526 84.211,0 50.526,0L0,0Z"
              style="fill:rgb(244,144,12);fill-rule:nonzero;" />
          </g>
          <g id="g52" transform="matrix(1,0,0,1,303.158,471.579)">
            <path id="path54"
              d="M0,0C-16.842,0 -50.526,-33.684 -50.526,-50.526C-50.526,-67.368 -50.526,-151.579 0,-134.737C50.526,-117.895 50.526,-84.211 33.684,-50.526C16.842,-16.842 0,0 0,0"
              style="fill:rgb(244,144,12);fill-rule:nonzero;" />
          </g>
          <g id="g56" transform="matrix(1,0,0,1,353.651,109.474)">
            <path id="path58"
              d="M0,0C-12.817,0 -23.798,9.718 -25.112,22.754L-58.796,359.596C-60.177,373.474 -50.055,385.853 -36.16,387.251C-22.417,388.648 -9.92,378.509 -8.522,364.615L25.162,27.773C26.56,13.895 16.438,1.516 2.543,0.135C1.701,0.034 0.842,0 0,0"
              style="fill:rgb(244,144,12);fill-rule:nonzero;" />
          </g>
          <g id="g60" transform="matrix(1,0,0,1,370.56,109.474)">
            <path id="path62"
              d="M0,0C-1.128,0 -2.291,0.067 -3.453,0.236C-17.263,2.122 -26.964,14.855 -25.061,28.682L25.465,399.208C27.335,413.019 39.916,422.703 53.912,420.817C67.722,418.947 77.423,406.198 75.52,392.371L24.994,21.844C23.276,9.179 12.429,0 0,0"
              style="fill:rgb(244,144,12);fill-rule:nonzero;" />
          </g>
          <g id="g64" transform="matrix(1,0,0,1,320,92.6316)">
            <path id="path66"
              d="M0,0C-10.324,0 -20.008,6.366 -23.747,16.623L-158.484,387.149C-163.251,400.269 -156.48,414.754 -143.377,419.537C-130.274,424.303 -115.773,417.549 -110.989,404.429L23.747,33.903C28.497,20.783 21.743,6.282 8.64,1.516C5.777,0.472 2.863,0 0,0"
              style="fill:rgb(244,144,12);fill-rule:nonzero;" />
          </g>
          <g id="g68" transform="matrix(1,0,0,1,387.368,143.158)">
            <path id="path70"
              d="M0,0C-2.644,0 -5.339,0.404 -8,1.297C-21.238,5.709 -28.379,20.008 -23.966,33.263L77.086,336.404C81.482,349.659 95.815,356.851 109.053,352.387C122.291,347.975 129.432,333.676 125.019,320.438L23.966,17.263C20.446,6.686 10.577,0 0,0"
              style="fill:rgb(244,144,12);fill-rule:nonzero;" />
          </g>
          <g id="g72" transform="matrix(1,0,0,1,336.842,176.842)">
            <path id="path74"
              d="M0,0C-10.324,0 -20.008,6.366 -23.747,16.623L-91.116,201.886C-95.882,215.006 -89.112,229.491 -76.008,234.274C-62.905,239.023 -48.404,232.286 -43.621,219.166L23.747,33.903C28.497,20.783 21.743,6.282 8.64,1.516C5.794,0.472 2.863,0 0,0"
              style="fill:rgb(244,144,12);fill-rule:nonzero;" />
          </g>
          <g id="g76" transform="matrix(1,0,0,1,168.387,176.842)">
            <path id="path78"
              d="M0,0C-12.126,0 -22.821,8.758 -24.893,21.103L-58.577,223.208C-60.867,236.985 -51.571,249.987 -37.811,252.278C-24.084,254.636 -11.032,245.288 -8.741,231.528L24.943,29.423C27.251,15.663 17.954,2.627 4.194,0.354C2.779,0.118 1.381,0 0,0"
              style="fill:rgb(244,144,12);fill-rule:nonzero;" />
          </g>
          <g id="g80" transform="matrix(1,0,0,1,505.297,227.368)">
            <path id="path82"
              d="M0,0C-0.943,0 -1.869,0.051 -2.829,0.152C-16.691,1.701 -26.678,14.198 -25.145,28.059L-8.303,179.638C-6.754,193.499 5.693,203.52 19.604,201.954C33.465,200.404 43.453,187.924 41.92,174.046L25.078,22.467C23.629,9.549 12.699,0 0,0"
              style="fill:rgb(244,144,12);fill-rule:nonzero;" />
          </g>
          <g id="g84" transform="matrix(1,0,0,1,505.229,92.6316)">
            <path id="path86"
              d="M0,0C-12.429,0 -23.276,9.179 -24.994,21.844L-75.52,392.371C-77.423,406.198 -67.722,418.947 -53.912,420.817C-40.017,422.754 -27.352,413.036 -25.465,399.208L25.061,28.682C26.964,14.855 17.263,2.122 3.453,0.236C2.291,0.067 1.128,0 0,0"
              style="fill:rgb(255,204,77);fill-rule:nonzero;" />
          </g>
          <g id="g88" transform="matrix(1,0,0,1,387.335,193.684)">
            <path id="path90"
              d="M0,0C-13.12,0 -24.202,10.173 -25.162,23.478L-42.004,259.251C-43.015,273.162 -32.539,285.255 -18.594,286.248C-4.749,287.36 7.377,276.766 8.387,262.855L25.229,27.048C26.24,13.137 15.764,1.044 1.819,0.067C1.213,0.017 0.606,0 0,0"
              style="fill:rgb(255,204,77);fill-rule:nonzero;" />
          </g>
          <g id="g92" transform="matrix(1,0,0,1,168.455,160)">
            <path id="path94"
              d="M0,0C-0.977,0 -1.971,0.051 -2.964,0.168C-16.825,1.785 -26.745,14.333 -25.128,28.194L0.842,250.661C2.459,264.522 15.04,274.425 28.851,272.825C42.712,271.208 52.632,258.661 51.015,244.8L25.061,22.333C23.562,9.465 12.632,0 0,0"
              style="fill:rgb(255,204,77);fill-rule:nonzero;" />
          </g>
          <g id="g96" transform="matrix(1,0,0,1,319.975,160)">
            <path id="path98"
              d="M0,0C-11.806,0 -22.349,8.303 -24.741,20.312L-92.109,357.154C-94.855,370.829 -85.979,384.152 -72.286,386.88C-58.577,389.642 -45.305,380.733 -42.577,367.057L24.792,30.215C27.537,16.522 18.661,3.217 4.968,0.488C3.301,0.168 1.634,0 0,0"
              style="fill:rgb(255,204,77);fill-rule:nonzero;" />
          </g>
        </g>
      </g>
    </g>
    <g id="g100" transform="matrix(1.13021,0,0,1.13021,-41.6656,-31.3716)">
      <g id="g102">
        <g id="g108" transform="matrix(1,0,0,1,387.368,151.579)">
          <path id="path110"
            d="M0,0C0,-37.204 -30.164,-67.368 -67.368,-67.368C-104.573,-67.368 -134.737,-37.204 -134.737,0C-134.737,37.204 -104.573,67.368 -67.368,67.368C-30.164,67.368 0,37.204 0,0"
            style="fill:rgb(190,25,49);fill-rule:nonzero;" />
        </g>
      </g>
    </g>
  </g>
</svg>